<?xml version="1.0" standalone="no"?>
<!DOCTYPE svg PUBLIC "-//W3C//DTD SVG 20010904//EN"
 "http://www.w3.org/TR/2001/REC-SVG-20010904/DTD/svg10.dtd">
<svg version="1.0" xmlns="http://www.w3.org/2000/svg"
 width="260.000000pt" height="260.000000pt" viewBox="0 0 260.000000 260.000000"
 preserveAspectRatio="xMidYMid meet">
<metadata>
Created by potrace 1.11, written by Peter Selinger 2001-2013
</metadata>
<g transform="translate(0.000000,260.000000) scale(0.100000,-0.100000)"
fill="#000000" stroke="none">
<path d="M965 2224 c-132 -17 -243 -48 -278 -78 l-26 -22 33 -116 34 -117 -90
-93 c-325 -337 -456 -686 -349 -922 72 -159 215 -328 360 -426 220 -148 520
-215 811 -180 570 68 971 448 910 863 -32 224 -165 451 -394 677 -73 72 -76
76 -75 120 1 83 15 152 32 162 28 15 19 32 -31 60 -106 59 -312 88 -615 87
-117 -1 -261 -8 -322 -15z m285 -589 c31 -28 87 -133 96 -179 5 -28 4 -37 -5
-32 -6 4 -11 1 -11 -8 0 -8 5 -16 11 -18 33 -11 -46 -257 -101 -313 -31 -32
-40 -80 -17 -88 8 -3 5 -14 -12 -37 -22 -30 -23 -37 -12 -64 19 -45 23 -69 13
-83 -4 -7 -44 -22 -88 -34 -88 -23 -220 -23 -248 1 -18 14 -23 115 -6 125 19
11 12 62 -9 68 -14 3 -22 17 -26 43 -3 22 -12 68 -20 104 -30 139 -45 229 -45
267 0 35 4 42 29 53 42 17 48 41 17 65 -41 33 -36 76 13 108 50 34 132 46 282
44 101 -2 120 -5 139 -22z m563 -86 c31 -17 37 -28 37 -77 0 -29 7 -53 21 -70
17 -22 19 -34 13 -77 -10 -74 -41 -171 -81 -251 -30 -58 -35 -77 -29 -107 l7
-37 61 0 c50 0 65 4 90 25 16 14 38 25 49 25 69 0 147 -82 135 -141 -9 -48
-43 -87 -85 -100 -23 -7 -85 -10 -157 -7 -137 4 -187 21 -247 83 -36 37 -37
37 -99 31 -35 -3 -79 -8 -98 -12 -19 -3 -48 -1 -64 6 -28 10 -29 11 -23 70 5
40 20 86 45 137 22 43 44 100 51 127 6 26 25 75 41 107 38 73 39 105 5 121
-21 9 -25 18 -23 42 2 25 8 31 34 37 17 3 47 17 65 32 19 14 50 30 69 35 49
14 157 14 183 1z"/>
<path d="M1140 1625 c-7 -8 -15 -13 -19 -11 -4 3 -25 1 -47 -4 -21 -5 -79 -12
-129 -16 -49 -3 -92 -10 -93 -15 -2 -5 -9 -6 -15 -2 -7 3 -4 -3 6 -14 15 -17
26 -20 75 -16 31 3 59 9 60 14 3 6 9 6 17 -1 12 -10 32 -9 65 2 24 8 109 28
121 28 5 0 8 -4 4 -9 -12 -20 15 -21 35 -1 34 34 28 43 -37 54 -21 3 -35 0
-43 -9z"/>
<path d="M1026 1422 c-3 -20 -6 -49 -6 -63 0 -24 -5 -27 -76 -43 -42 -9 -78
-15 -79 -14 -2 2 -8 20 -13 42 -10 34 -9 39 9 43 31 8 22 20 -18 26 -49 6 -59
-4 -43 -44 8 -18 14 -55 14 -83 0 -28 5 -55 11 -61 14 -11 40 -106 51 -177 6
-45 24 -63 39 -38 5 8 -22 160 -41 228 -5 18 -2 22 15 22 12 0 20 3 18 8 -3 4
7 7 21 7 15 0 39 4 55 8 27 7 27 7 27 -42 0 -27 3 -56 6 -65 4 -11 0 -16 -13
-16 -27 0 -35 -10 -22 -27 15 -17 63 -16 118 3 24 8 50 13 57 10 14 -5 27 21
18 35 -3 6 -20 7 -36 3 -29 -6 -30 -5 -24 17 4 13 13 44 20 69 9 34 18 47 37
52 54 14 109 25 109 21 0 -3 -26 -57 -57 -121 -32 -65 -56 -120 -55 -124 1 -5
-1 -7 -6 -6 -4 0 -18 -3 -30 -8 -21 -9 -22 -12 -8 -23 37 -31 81 20 154 179
63 136 67 149 47 156 -7 3 -34 -2 -59 -10 -26 -9 -60 -16 -76 -16 -28 0 -28 1
-19 32 5 18 9 39 9 45 0 22 -30 14 -39 -9 -5 -13 -15 -38 -23 -55 -7 -18 -16
-33 -20 -33 -3 0 -14 -3 -23 -6 -14 -6 -16 -1 -15 32 3 61 1 71 -14 77 -9 4
-15 -6 -20 -31z m74 -129 c0 -15 -36 -123 -44 -130 -1 -1 -3 29 -4 67 -2 58 0
69 15 73 31 8 33 7 33 -10z"/>
<path d="M1054 1047 c-8 -21 -12 -47 -13 -78 -1 -23 -8 -28 -68 -45 -46 -14
-69 -25 -71 -37 -4 -21 27 -22 91 -3 47 14 47 14 47 -10 0 -19 -8 -25 -37 -33
-21 -5 -51 -11 -68 -13 -19 -2 -30 -9 -30 -18 0 -24 61 -23 149 3 86 26 110
47 53 47 -31 0 -34 2 -29 25 3 17 17 32 44 46 44 22 41 42 -5 37 -32 -3 -32
-2 -32 41 0 44 -19 68 -31 38z"/>
<path d="M1750 1508 c-25 -5 -83 -18 -130 -29 -47 -10 -95 -22 -107 -24 -27
-6 -31 -40 -7 -49 9 -4 19 -4 22 -1 3 3 1 5 -4 6 -5 0 29 9 76 19 47 10 97 21
113 25 15 4 27 3 27 -1 0 -8 -31 -47 -74 -96 -10 -11 -39 -19 -85 -24 -46 -4
-71 -11 -71 -19 0 -13 43 -25 87 -25 24 0 24 -1 -17 -52 -26 -33 -52 -55 -68
-58 -22 -5 -26 -11 -24 -31 1 -17 -14 -50 -43 -94 -25 -38 -45 -75 -45 -83 0
-7 -11 -29 -24 -49 -35 -51 -25 -67 38 -59 43 5 168 44 195 60 5 3 11 -12 15
-33 8 -52 37 -86 91 -107 37 -14 67 -16 166 -12 67 3 124 9 128 14 3 5 19 10
35 11 45 3 52 16 37 70 -12 47 -35 83 -53 83 -4 0 -6 -10 -4 -22 18 -86 17
-98 -3 -98 -11 0 -32 -5 -48 -11 -15 -6 -70 -10 -122 -9 -121 2 -167 22 -177
77 -8 45 -2 64 92 258 40 84 75 168 76 187 l3 33 -58 -3 -57 -2 36 50 c20 27
40 52 45 56 13 8 11 41 -3 46 -7 3 -33 1 -58 -4z m40 -192 c0 -7 -54 -125
-105 -228 -26 -54 -53 -98 -60 -98 -7 0 -18 -6 -24 -14 -7 -8 -24 -17 -39 -21
-14 -3 -45 -15 -69 -26 -57 -26 -65 -25 -57 9 13 53 114 199 114 164 0 -7 6
-12 14 -12 7 0 13 -9 12 -20 0 -11 2 -20 7 -20 4 0 12 0 17 0 15 0 12 44 -5
66 -22 29 -18 44 23 93 21 25 46 58 56 73 13 19 28 28 54 31 20 2 43 4 50 5 6
1 12 0 12 -2z"/>
</g>
</svg>
